<svg xmlns="http://www.w3.org/2000/svg" version="1.1" xmlns:xlink="http://www.w3.org/1999/xlink" xmlns:svgjs="http://svgjs.dev/svgjs" width="1500" height="511" viewBox="0 0 1500 511"><g transform="matrix(1,0,0,1,-0.9084522071641459,-0.6346522695295391)"><svg viewBox="0 0 396 135" data-background-color="#2d2e35" preserveAspectRatio="xMidYMid meet" height="511" width="1500" xmlns="http://www.w3.org/2000/svg" xmlns:xlink="http://www.w3.org/1999/xlink"><g id="tight-bounds" transform="matrix(1,0,0,1,0.24008861730862918,0.16768273397676126)"><svg viewBox="0 0 395.52 134.66464983669547" height="134.66464983669547" width="395.52"><g><svg viewBox="0 0 395.52 134.66464983669547" height="134.66464983669547" width="395.52"><g><svg viewBox="0 0 395.52 134.66464983669547" height="134.66464983669547" width="395.52"><g id="textblocktransform"><svg viewBox="0 0 395.52 134.66464983669547" height="134.66464983669547" width="395.52" id="textblock"><g><svg viewBox="0 0 395.52 134.66464983669547" height="134.66464983669547" width="395.52"><path d="M394.594 28.883C392.735 14.905 387.435 11.019 387.435 11.019 371.165-3.379 350.86-0.275 332.619 1.793 300.414 1.877 268.339 4.952 236.208 6.602 168.767 6.853 100.749 2.716 33.643 12.92 27.339 16.051-6.54 13.535 1.121 30.672 3.129 37.801 10.456 45.713 10.232 52.254 11.236 53.401 12.631 50.773 13.226 52.422 15.309 56.867 18.711 54.771 21.501 57.398 17.614 64.415 20.403 70.258 23.062 76.381 18.377 77.974 12.371 77.219 9.675 82.503 9.396 86.333 7.89 85.606 6.235 85.439 5.026 85.327 2.59 85.746 2.999 86.948 4.394 91.058-1.594 93.434 2.162 97.46-0.422 101.821 3.948 105.595 3.353 110.32 3.278 111.27 3.687 112.081 4.338 112.305 7.22 113.507 3.018 115.855 3.464 118.399 33.029 135.788 65.104 123.767 95.394 131.762 103.259 126.171 97.346 133.747 100.489 132.573 102.943 131.203 104.728 136.878 107.499 133.663 107.927 132.741 107.276 130.56 108.8 130.979 109.6 131.203 110.307 131.147 110.418 129.861 110.586 127.932 109.117 129.134 108.726 128.128 112.947 123.04 111.906 135.145 115.866 134.642 115.68 133.16 114.528 131.035 116.889 131.315 119.232 129.19 119.306 127.429 121.389 132.209 121.463 133.244 121.835 133.971 122.43 134.474 128.938 129.274 135.409 136.319 142.233 133.971 146.417 131.399 150.433 135.368 154.672 134.39 156.16 133.607 157.666 132.209 159.098 134.558 176.632 135.061 195.319 132.964 211.943 134.642 256.364 131.511 303.836 135.928 350.674 131.79 361.719 130.197 373.192 127.932 383.958 126.115 383.958 126.115 392.679 121.139 392.679 98.774S394.538 79.204 394.817 61.396C395.096 43.588 396.398 42.861 394.538 28.883Z" opacity="1" fill="#fda703" data-fill-palette-color="tertiary"></path><g transform="matrix(1,0,0,1,55.76832,26.230666666666668)"><svg width="283.98335999999995" viewBox="2 -34.1 156.14 45.2" height="82.20331650336215" data-palette-color="#2d2e35"><path d="M20.4-34.1Q26.2-34.1 28.8-31.2 31.4-28.3 31.4-23.05L31.4-23.05Q31.4-18.55 30.3-14.28 29.2-10 26.93-6.68 24.65-3.35 21.18-1.35 17.7 0.65 13 0.65L13 0.65Q7.2 0.65 4.6-2.25 2-5.15 2-10.4L2-10.4Q2-14.9 3.1-19.18 4.2-23.45 6.48-26.78 8.75-30.1 12.23-32.1 15.7-34.1 20.4-34.1L20.4-34.1ZM18.7-29.75Q16-29.75 14.08-27.93 12.15-26.1 10.88-23.35 9.6-20.6 9-17.38 8.4-14.15 8.4-11.3L8.4-11.3Q8.4-9.65 8.7-8.28 9-6.9 9.75-5.88 10.5-4.85 11.7-4.28 12.9-3.7 14.7-3.7L14.7-3.7Q17.4-3.7 19.33-5.53 21.25-7.35 22.53-10.1 23.8-12.85 24.4-16.1 25-19.35 25-22.2L25-22.2Q25-23.8 24.7-25.18 24.4-26.55 23.65-27.58 22.9-28.6 21.7-29.18 20.5-29.75 18.7-29.75L18.7-29.75ZM31.65 11.1L36.25-12.6Q36.55-14.05 36.67-15.3 36.8-16.55 36.8-17.55L36.8-17.55Q36.8-20.3 36.3-21.55 35.8-22.8 35.55-23.2L35.55-23.2 40.1-25Q40.65-24.3 41.02-23.3 41.4-22.3 41.4-20.75L41.4-20.75Q41.4-20.35 41.35-19.8 41.3-19.25 41.25-18.65 41.2-18.05 41.12-17.48 41.05-16.9 41-16.55L41-16.55 41.65-18Q42.5-20 43.5-21.33 44.5-22.65 45.62-23.45 46.75-24.25 47.97-24.58 49.2-24.9 50.5-24.9L50.5-24.9Q52.3-24.9 53.55-24.2 54.8-23.5 55.6-22.33 56.4-21.15 56.77-19.68 57.15-18.2 57.15-16.65L57.15-16.65Q57.15-13.1 56.22-10 55.3-6.9 53.5-4.58 51.7-2.25 49.07-0.93 46.45 0.4 43.1 0.4L43.1 0.4Q42.1 0.4 41.12 0.28 40.15 0.15 39.3-0.05L39.3-0.05 37.3 10.1 31.65 11.1ZM40.05-3.95Q40.8-3.7 41.57-3.58 42.35-3.45 43-3.45L43-3.45Q45.25-3.45 46.8-4.73 48.35-6 49.32-7.98 50.3-9.95 50.75-12.33 51.2-14.7 51.2-16.85L51.2-16.85Q51.2-19.05 50.57-19.93 49.95-20.8 48.65-20.8L48.65-20.8Q47.35-20.8 46.2-19.65 45.05-18.5 44-16.4 42.95-14.3 42.02-11.4 41.1-8.5 40.3-5.05L40.3-5.05 40.05-3.95ZM60.14-7.8Q60.14-11.35 61.07-14.5 61.99-17.65 63.77-20 65.55-22.35 68.14-23.73 70.75-25.1 74.09-25.1L74.09-25.1Q78-25.1 79.64-23.65 81.3-22.2 81.3-19.7L81.3-19.7Q81.3-17.5 80.17-15.7 79.05-13.9 77.02-12.55 75-11.2 72.19-10.38 69.39-9.55 66.05-9.4L66.05-9.4Q65.99-8.95 65.99-8.5 65.99-8.05 65.99-7.65L65.99-7.65Q65.99-5.3 66.99-4.4 67.99-3.5 69.64-3.5L69.64-3.5Q70.64-3.5 71.92-3.8 73.19-4.1 74.39-4.5L74.39-4.5Q75.75-4.95 77.25-5.55L77.25-5.55 78.39-1.95Q76.89-1.25 75.25-0.7L75.25-0.7Q73.84-0.2 72.07 0.18 70.3 0.55 68.5 0.55L68.5 0.55Q66.14 0.55 64.55-0.15 62.94-0.85 61.97-2.02 60.99-3.2 60.57-4.7 60.14-6.2 60.14-7.8L60.14-7.8ZM72.94-21.25Q71.8-21.25 70.8-20.58 69.8-19.9 69.02-18.75 68.25-17.6 67.64-16.1 67.05-14.6 66.64-13L66.64-13Q68.89-13.15 70.57-13.73 72.25-14.3 73.37-15.15 74.5-16 75.07-16.95 75.64-17.9 75.64-18.8L75.64-18.8Q75.64-19.95 75.02-20.6 74.39-21.25 72.94-21.25L72.94-21.25ZM107.09-18.8Q107.09-16.85 106.59-14.95 106.09-13.05 105.47-11.3 104.84-9.55 104.34-7.93 103.84-6.3 103.84-4.8L103.84-4.8Q103.84-3.8 103.92-2.48 103.99-1.15 104.24 0L104.24 0 98.69 0Q98.54-0.85 98.52-1.58 98.49-2.3 98.49-3L98.49-3Q98.49-4.95 98.94-6.85 99.39-8.75 99.94-10.6 100.49-12.45 100.94-14.18 101.39-15.9 101.39-17.55L101.39-17.55Q101.39-18.75 100.82-19.58 100.24-20.4 98.69-20.4L98.69-20.4Q97.34-20.4 96.04-19.23 94.74-18.05 93.62-16.23 92.49-14.4 91.67-12.2 90.84-10 90.44-7.95L90.44-7.95 88.89 0 83.29 0 85.84-12.6Q86.14-14.05 86.27-15.3 86.39-16.55 86.39-17.55L86.39-17.55Q86.39-20.3 85.89-21.55 85.39-22.8 85.14-23.2L85.14-23.2 89.69-25Q90.24-24.3 90.62-23.3 90.99-22.3 90.99-20.75L90.99-20.75Q90.99-20.2 90.97-19.93 90.94-19.65 90.92-19.25 90.89-18.85 90.79-18.13 90.69-17.4 90.54-16.05L90.54-16.05 91.39-18.05Q92.89-21.5 95.32-23.2 97.74-24.9 100.74-24.9L100.74-24.9Q104.04-24.9 105.57-23.25 107.09-21.6 107.09-18.8L107.09-18.8ZM138.34-32.5L120.09 0 115.49 0 109.09-33.45 115.24-33.45 118.24-15Q118.64-12.65 118.87-11 119.09-9.35 119.24-8.05L119.24-8.05Q119.84-9.3 120.69-10.95 121.54-12.6 122.79-15L122.79-15 132.59-33.85 138.34-32.5ZM158.14-24.5Q158.14-24.6 157.91-23.6 157.69-22.6 157.31-20.95 156.94-19.3 156.51-17.3 156.09-15.3 155.74-13.35 155.39-11.4 155.14-9.78 154.89-8.15 154.89-7.3L154.89-7.3Q154.89-6.05 155.01-4.98 155.14-3.9 155.29-2.88 155.44-1.85 155.56-0.83 155.69 0.2 155.69 1.35L155.69 1.35Q155.69 4.1 154.94 5.98 154.19 7.85 152.81 8.97 151.44 10.1 149.46 10.6 147.49 11.1 145.09 11.1L145.09 11.1Q143.64 11.1 142.19 10.78 140.74 10.45 139.39 10 138.04 9.55 136.86 9.03 135.69 8.5 134.84 8.1L134.84 8.1 136.79 3.9Q137.74 4.3 138.84 4.78 139.94 5.25 141.09 5.65 142.24 6.05 143.44 6.33 144.64 6.6 145.79 6.6L145.79 6.6Q148.14 6.6 149.44 5.1 150.74 3.6 150.74 1.45L150.74 1.45Q150.74 1 150.71 0.48 150.69-0.05 150.64-0.73 150.59-1.4 150.56-2.3 150.54-3.2 150.54-4.5L150.54-4.5Q150.54-5.4 150.69-6.55 150.84-7.7 150.94-8.55L150.94-8.55 149.99-6.45Q148.54-3 146.11-1.3 143.69 0.4 140.69 0.4L140.69 0.4Q137.39 0.4 135.86-1.25 134.34-2.9 134.34-5.7L134.34-5.7Q134.34-7.65 134.84-9.5 135.34-11.35 135.96-13.13 136.59-14.9 137.09-16.65 137.59-18.4 137.59-20.15L137.59-20.15Q137.59-21.15 137.51-22.13 137.44-23.1 137.34-23.65L137.34-23.65 142.09-24.85Q142.64-23.75 142.84-22.38 143.04-21 143.04-19.8L143.04-19.8Q143.04-18.05 142.56-16.45 142.09-14.85 141.54-13.28 140.99-11.7 140.51-10.15 140.04-8.6 140.04-6.95L140.04-6.95Q140.04-5.75 140.61-4.93 141.19-4.1 142.74-4.1L142.74-4.1Q144.09-4.1 145.39-5.28 146.69-6.45 147.81-8.28 148.94-10.1 149.76-12.3 150.59-14.5 150.99-16.55L150.99-16.55 152.54-24.5 158.14-24.5Z" opacity="1" transform="matrix(1,0,0,1,0,0)" fill="#2d2e35" class="wordmark-text-0" data-fill-palette-color="quaternary" id="text-0"></path></svg></g></svg></g></svg></g></svg></g><g></g></svg></g><defs></defs></svg><rect width="395.52" height="134.66464983669547" fill="none" stroke="none" visibility="hidden"></rect></g></svg></g></svg>